<svg xmlns="http://www.w3.org/2000/svg" version="1.1" xmlns:xlink="http://www.w3.org/1999/xlink" xmlns:svgjs="http://svgjs.dev/svgjs" width="1000" height="1000" viewBox="0 0 1000 1000"><rect width="1000" height="1000" fill="#000000"></rect><g transform="matrix(0.7,0,0,0.7,150.33080562566943,124.75408906882592)"><svg viewBox="0 0 230 247" data-background-color="#0718c4" preserveAspectRatio="xMidYMid meet" height="1073" width="1000" xmlns="http://www.w3.org/2000/svg" xmlns:xlink="http://www.w3.org/1999/xlink"><defs></defs><g id="tight-bounds" transform="matrix(1,0,0,1,-0.10869327700567055,-0.09999999999999432)"><svg viewBox="0 0 230.2173865540113 247.2" height="247.2" width="230.2173865540113"><g><svg viewBox="0 0 397.4975999999999 426.8200946540884" height="247.2" width="230.2173865540113"><g><rect width="397.4975999999999" height="9.393013108314607" x="0" y="198.26054004421414" fill="#ffffff" opacity="1" stroke-width="0" stroke="transparent" fill-opacity="1" class="rect-o-0" data-fill-palette-color="primary" rx="1%" id="o-0" data-palette-color="#ffffff"></rect></g><g transform="matrix(1,0,0,1,0.9887999999999693,232.24259270309057)"><svg viewBox="0 0 395.52 194.57750195099788" height="194.57750195099788" width="395.52"><g><svg viewBox="0 0 395.52 194.57750195099788" height="194.57750195099788" width="395.52"><g><svg viewBox="0 0 395.52 104.15730337078651" height="104.15730337078651" width="395.52"><g transform="matrix(1,0,0,1,0,0)"><svg width="395.52" viewBox="3.25 -37.5 144.0399932861328 37.5" height="104.15730337078651" data-palette-color="#ffffff"><g class="undefined-text-0" data-fill-palette-color="primary" id="text-0"><path d="M6.4-34.1L3.25-34.1 3.25-37.5 10.95-37.5 21.55-15.65 32.05-37.5 39.75-37.5 39.75-34.1 36.6-34.1 36.6-3.4 39.75-3.4 39.75 0 29.25 0 29.25-3.4 32.5-3.4 32.5-29.15 23.05-9.7 19.9-9.7 10.5-29.3 10.5-3.4 13.75-3.4 13.75 0 3.25 0 3.25-3.4 6.4-3.4 6.4-34.1ZM51.55-37.5L61.3-37.5Q64.35-37.5 65.72-35.83 67.1-34.15 67.1-30.85L67.1-30.85 67.1-6.8Q67.1-3.2 65.9-1.6 64.7 0 61.55 0L61.55 0 51.95 0Q47.15 0 46.3-3.6L46.3-3.6Q46-4.7 46-6.05L46-6.05 46-30.85Q46-34.2 47.1-35.7L47.1-35.7Q48.35-37.5 51.55-37.5L51.55-37.5ZM50-34.1L50-3.4 63.1-3.4 63.1-34.1 50-34.1ZM71.34-34.1L71.34-37.5 80.5-37.5 80.5-34.1 77.89-34.1 86.14-3.4 94.34-34.1 91.19-34.1 91.19-37.5 100.84-37.5 100.84-34.1 98.14-34.1 89 0 83.25 0 74.14-34.1 71.34-34.1ZM113.34-34.1L113.34-3.4 116.59-3.4 116.59 0 106.09 0 106.09-3.4 109.24-3.4 109.24-34.1 106.09-34.1 106.09-37.5 116.59-37.5 116.59-34.1 113.34-34.1ZM138.14-24.65L141.54-24.65 141.54-14.15 138.14-14.15 138.14-17.7 131.09-17.7 131.09-3.4 143.89-3.4 143.89-9.25 147.29-9.25 147.29 0 123.84 0 123.84-3.4 126.99-3.4 126.99-34.1 123.84-34.1 123.84-37.5 147.29-37.5 147.29-28.25 143.89-28.25 143.89-34.1 131.09-34.1 131.09-21.1 138.14-21.1 138.14-24.65Z" fill="#ffffff" data-fill-palette-color="primary"></path></g></svg></g></svg></g><g transform="matrix(1,0,0,1,0,128.74634292134832)"><svg viewBox="0 0 395.52 65.8311590296496" height="65.8311590296496" width="395.52"><g transform="matrix(1,0,0,1,0,0)"><svg width="395.52" viewBox="1.8300000429153442 -41.33000183105469 253.59999084472656 42.21000289916992" height="65.8311590296496" data-palette-color="#ffffff"><path d="M13.79-0.32L13.79-0.32Q12.52 0.49 10.95 0.49 9.38 0.49 8.13-0.29L8.13-0.29Q6.88 0.49 5.82 0.49 4.76 0.49 4.08 0.31 3.39 0.12 2.88-0.2L2.88-0.2Q1.83-0.83 1.83-1.78L1.83-1.78Q1.83-2.27 2.1-2.64L2.1-2.64Q2.64-2.22 3.47-2.22L3.47-2.22Q5.64-2.22 6.47-4.08L6.47-4.08 6.47-16.02Q6.47-17.14 6.01-17.68L6.01-17.68Q5.27-18.58 3.49-19.46L3.49-19.46Q5.15-20.21 5.64-20.8L5.64-20.8Q6.47-21.75 6.47-22.95L6.47-22.95 6.47-33.25Q5.64-35.13 3.47-35.13L3.47-35.13Q2.64-35.13 2.1-34.72L2.1-34.72Q1.83-35.08 1.83-35.56 1.83-36.04 2.11-36.45 2.39-36.87 2.88-37.16L2.88-37.16Q4-37.84 5.46-37.84 6.91-37.84 8.13-37.04L8.13-37.04Q9.4-37.84 10.95-37.84 12.5-37.84 13.75-37.06L13.75-37.06Q16.16-38.09 19.2-38.09 22.24-38.09 24.46-37.38 26.68-36.67 28.47-35.4L28.47-35.4Q32.18-32.76 33.37-28.44L33.37-28.44Q33.86-26.76 35.69-25.68L35.69-25.68Q33.81-24.63 33.18-22.51 32.54-20.39 31.07-18.57 29.59-16.75 27.69-15.53L27.69-15.53Q23.8-13.04 19.43-13.04L19.43-13.04Q17.53-13.04 15.45-13.53L15.45-13.53 15.45-4.2Q16.11-2.78 18.16-2.34L18.16-2.34Q18.7-2.22 19.36-2.22 20.02-2.22 20.56-2.64L20.56-2.64Q20.83-2.27 20.83-1.79 20.83-1.32 20.47-0.9 20.12-0.49 19.53-0.2L19.53-0.2Q18.24 0.49 16.7 0.49 15.16 0.49 13.79-0.32ZM15.45-31.03L15.45-19.9Q15.45-18.24 16.67-17.24L16.67-17.24Q17.8-16.31 19.56-16.31L19.56-16.31Q22.24-16.31 23.44-18.36L23.44-18.36Q23.85-19.07 23.85-20.09L23.85-20.09 23.85-31.13Q23.85-32.89 22.51-33.89L22.51-33.89Q21.29-34.81 20.08-34.81 18.87-34.81 18.1-34.58 17.33-34.35 16.75-33.89L16.75-33.89Q15.45-32.86 15.45-31.03L15.45-31.03ZM25.44-17.38L25.44-17.38Q26-17.48 26.6-18.75 27.2-20.02 27.5-21.74 27.81-23.46 28.27-24.28 28.74-25.1 29.76-25.44L29.76-25.44Q28.08-26 27.64-28.43 27.2-30.86 26.6-32.01 26-33.15 25.44-33.25L25.44-33.25Q26.34-31.23 26.34-25.44L26.34-25.44Q26.34-21.58 25.95-19.63 25.56-17.68 25.44-17.38ZM8.81-9.64L8.81-6.47Q10.03-6.93 10.16-9.67L10.16-9.67Q10.3-12.4 10.3-17.24 10.3-22.07 10.29-23.67 10.28-25.27 10.25-26.25L10.25-26.25Q10.18-29.13 9.7-29.72 9.23-30.32 8.81-30.52L8.81-30.52Q8.81-22.02 8.52-20.85L8.52-20.85Q8.18-19.87 6.86-19.46L6.86-19.46Q8.33-18.95 8.52-18.21L8.52-18.21Q8.81-17.04 8.81-9.64L8.81-9.64ZM58.32-7.37L58.32-7.37Q58.86-8.4 60.3-8.4L60.3-8.4Q61.28-8.4 61.81-7.59L61.81-7.59Q62.25-6.96 62.25-6.04 62.25-5.13 61.79-4.2 61.33-3.27 60.52-2.51 59.71-1.76 58.68-1.17 57.64-0.59 56.47-0.2L56.47-0.2Q54.05 0.61 51.44 0.61 48.83 0.61 46.54-0.26 44.26-1.12 42.62-2.69L42.62-2.69Q39.43-5.76 38.72-11.13L38.72-11.13Q38.55-12.33 38.16-12.84L38.16-12.84Q37.42-13.75 35.74-14.58L35.74-14.58Q37.86-15.53 38.45-17.63L38.45-17.63Q38.62-18.21 38.72-18.8L38.72-18.8Q39.33-23.1 43.06-26.12L43.06-26.12Q46.68-29.05 51.14-29.05L51.14-29.05Q55.78-29.05 59.18-25.78L59.18-25.78Q62.69-22.41 62.69-17.5L62.69-17.5Q62.69-17.33 62.68-17.16 62.67-16.99 62.69-16.85L62.69-16.85Q62.74-16.53 63.08-16.48L63.08-16.48Q63.52-15.92 63.52-15.28L63.52-15.28Q63.52-13.82 61.96-13.55L61.96-13.55Q61.57-13.48 60.74-13.35L60.74-13.35 46.97-11.16 46.97-8.81Q46.97-5.98 48.68-4.32L48.68-4.32Q50.29-2.73 52.76-2.73L52.76-2.73Q55.37-2.73 56.96-3.81L56.96-3.81Q58.44-4.83 58.44-6.49L58.44-6.49Q58.44-6.88 58.32-7.37ZM46.97-14.11L54.05-15.26 54.05-22.09Q54.05-23.71 53.42-24.46L53.42-24.46Q52.29-25.76 51.19-25.76 50.1-25.76 49.36-25.43 48.63-25.1 48.09-24.39L48.09-24.39Q46.97-22.9 46.97-19.75L46.97-19.75 46.97-14.11ZM56.15-15.63L57.66-15.87 57.66-16.63Q57.66-21.17 56.91-22.12L56.91-22.12Q56.56-22.53 56.15-22.73L56.15-22.73 56.15-15.63ZM42.99-6.47L42.99-6.47Q43.33-6.74 43.33-7.08L43.33-7.08Q43.33-7.62 43.11-8.45L43.11-8.45Q42.11-12.28 42.11-13.78 42.11-15.28 42.21-16.13 42.31-16.97 42.48-17.82L42.48-17.82Q42.77-19.48 43.11-20.75L43.11-20.75Q43.33-21.58 43.33-21.88L43.33-21.88Q43.33-22.46 42.99-22.73L42.99-22.73Q41.97-21.51 41.43-19.46 40.89-17.41 40.55-15.84L40.55-15.84Q40.43-15.19 39.11-14.58L39.11-14.58Q40.43-13.96 40.55-13.35L40.55-13.35Q41.45-9.23 42.04-8.11 42.62-6.98 42.99-6.47ZM68.48-0.12L68.48-0.12Q67.74 0.49 66.67 0.49 65.6 0.49 65-0.1 64.4-0.68 64.4-1.49 64.4-2.29 64.64-2.66L64.64-2.66Q65.23-2.32 65.95-2.32 66.67-2.32 67.26-2.47 67.84-2.61 68.45-3L68.45-3Q69.75-3.83 71.11-5.74L71.11-5.74 75.97-12.4 68.01-24.32Q67.35-25.29 66.97-25.45 66.6-25.61 66.25-25.61L66.25-25.61Q65.42-25.61 64.89-25.2L64.89-25.2Q64.62-25.46 64.62-26.04 64.62-26.61 64.75-26.99 64.89-27.37 65.18-27.66L65.18-27.66Q65.89-28.32 67.17-28.32 68.45-28.32 69.58-27.61L69.58-27.61Q70.53-28.32 71.88-28.32 73.24-28.32 74.36-27.49L74.36-27.49Q75.58-28.32 76.68-28.32 77.78-28.32 78.34-28.15 78.9-27.98 79.34-27.69L79.34-27.69Q80.24-27.03 80.24-26.05L80.24-26.05Q80.24-25.46 79.88-25.1L79.88-25.1Q79.32-25.54 78.63-25.54L78.63-25.54Q77.66-25.54 76.95-25.1L76.95-25.1 81.44-18.41 85.96-24.98Q85.03-25.63 84.19-25.63 83.34-25.63 82.54-25.17L82.54-25.17Q82.27-25.61 82.27-26.34 82.27-27.08 82.95-27.7 83.64-28.32 84.71-28.32 85.79-28.32 86.64-27.61L86.64-27.61Q87.52-28.32 88.51-28.32 89.5-28.32 90.42-27.69L90.42-27.69Q91.18-28.32 91.91-28.32 92.65-28.32 93.01-28.19 93.38-28.05 93.7-27.78L93.7-27.78Q94.38-27.22 94.38-26.38 94.38-25.54 94.14-25.17L94.14-25.17Q93.55-25.51 92.91-25.51 92.28-25.51 91.74-25.38 91.21-25.24 90.67-24.9L90.67-24.9Q89.45-24.15 88.33-22.58L88.33-22.58 83.22-15.72 90.35-5.08Q90.77-4.49 91.07-3.98 91.38-3.47 91.69-3.08L91.69-3.08Q92.43-2.22 93.34-2.22 94.26-2.22 94.79-2.64L94.79-2.64Q95.06-2.37 95.06-1.59 95.06-0.81 94.4-0.16 93.75 0.49 92.46 0.49 91.18 0.49 90.33-0.32L90.33-0.32Q89.25 0.49 87.74 0.49 86.23 0.49 84.96-0.34L84.96-0.34Q83.83 0.49 82.45 0.49 81.07 0.49 80.29-0.16 79.51-0.81 79.51-1.78L79.51-1.78Q79.51-2.37 79.88-2.73L79.88-2.73Q80.46-2.29 81-2.29L81-2.29Q81.9-2.29 82.54-2.56L82.54-2.56 77.66-9.89 73.31-2.81Q74.02-2.2 74.92-2.2 75.83-2.2 76.63-2.66L76.63-2.66Q76.9-2.22 76.9-1.66L76.9-1.66Q76.9 0.49 74.48 0.49L74.48 0.49Q73.31 0.49 72.41-0.29L72.41-0.29Q71.5 0.49 70.38 0.49 69.26 0.49 68.48-0.12ZM80.49-12.52L73.41-22.73Q73.14-22.34 73.14-21.73 73.14-21.12 73.46-20.5 73.77-19.87 74.26-19.14L74.26-19.14 76.22-16.36 82.88-6.47Q83.2-6.86 83.2-7.52L83.2-7.52Q83.2-8.54 80.49-12.52L80.49-12.52ZM100.94-0.17L100.94-0.17Q100.04 0.49 98.88 0.49 97.72 0.49 97.03-0.11 96.33-0.71 96.33-1.49 96.33-2.27 96.57-2.64L96.57-2.64Q97.28-2.22 98.82-2.22L98.82-2.22Q99.43-2.22 100.16-2.84 100.9-3.47 101.34-4.57L101.34-4.57 101.34-16.02Q101.34-17.16 100.85-17.72L100.85-17.72Q100.11-18.6 98.36-19.46L98.36-19.46Q100.14-20.31 100.6-20.87L100.6-20.87Q101.34-21.8 101.34-22.95L101.34-22.95 101.36-33.59Q100.77-35.13 98.77-35.13L98.77-35.13Q97.75-35.13 97.26-34.72L97.26-34.72Q97.01-35.03 97.01-35.55 97.01-36.06 97.23-36.47 97.45-36.89 97.84-37.21L97.84-37.21Q98.67-37.84 100.07-37.84 101.46-37.84 102.36-37.04L102.36-37.04Q103.17-37.84 104.24-37.84 105.31-37.84 106.07-36.94L106.07-36.94Q107.02-37.84 107.76-37.84 108.49-37.84 108.88-37.72 109.27-37.6 109.66-37.26L109.66-37.26Q110.44-36.65 111.3-34.79L111.3-34.79 120.65-15.38 128.36-34.4 129.05-35.99Q129.66-37.33 130.19-37.59 130.73-37.84 131.45-37.84 132.17-37.84 132.93-37.3L132.93-37.3Q133.85-37.84 135.36-37.84 136.86-37.84 137.96-37.04L137.96-37.04Q138.93-37.84 139.99-37.84 141.06-37.84 141.66-37.67 142.25-37.5 142.69-37.21L142.69-37.21Q143.62-36.55 143.62-35.57L143.62-35.57Q143.62-35.08 143.35-34.72L143.35-34.72Q142.81-35.13 141.98-35.13L141.98-35.13Q140.13-35.13 139.47-33.4L139.47-33.4 139.47-22.95Q139.47-21.75 139.98-21.17L139.98-21.17Q140.79-20.21 142.45-19.46L142.45-19.46Q140.67-18.58 140.18-18.02L140.18-18.02Q139.47-17.14 139.47-16.02L139.47-16.02 139.47-4.08Q140.3-2.22 142.47-2.22L142.47-2.22Q143.3-2.22 143.84-2.64L143.84-2.64Q144.11-2.27 144.11-1.79 144.11-1.32 143.83-0.9 143.55-0.49 143.06-0.2L143.06-0.2Q141.94 0.49 140.5 0.49 139.06 0.49 137.81-0.29L137.81-0.29Q136.66 0.49 135.2 0.49L135.2 0.49Q133.64 0.49 132.44-0.29L132.44-0.29Q131.19 0.49 130.13 0.49 129.07 0.49 128.39 0.31 127.7 0.12 127.19-0.2L127.19-0.2Q126.14-0.83 126.14-1.78L126.14-1.78Q126.14-2.27 126.41-2.64L126.41-2.64Q126.95-2.22 127.78-2.22L127.78-2.22Q129.95-2.22 130.78-4.08L130.78-4.08 130.78-30.76 121.26-7.18 120.21-4.79Q119.45-3.08 119.15-2.86 118.84-2.64 118.64-2.64L118.64-2.64Q118.03-2.64 117.79-2.76L117.79-2.76 104.75-28.47 104.75-4.59Q105.22-3.47 106.02-2.84 106.83-2.22 107.83-2.22 108.83-2.22 109.54-2.64L109.54-2.64Q109.81-2.2 109.81-1.43 109.81-0.66 109.05-0.09 108.29 0.49 107.1 0.49 105.9 0.49 104.9-0.12L104.9-0.12Q104.02 0.49 102.89 0.49 101.75 0.49 100.94-0.17ZM116.64-13.65L108.2-30.54Q107.95-30.18 107.95-29.49L107.95-29.49Q107.95-27.51 109.61-24.24L109.61-24.24 118.5-6.49Q118.67-6.71 118.67-7.42L118.67-7.42Q118.67-9.55 116.64-13.65L116.64-13.65ZM133.12-30.52L133.12-6.47Q134.34-6.93 134.47-9.67L134.47-9.67Q134.61-12.4 134.61-17.24 134.61-22.07 134.6-23.67 134.59-25.27 134.56-26.25L134.56-26.25Q134.49-29.13 134.01-29.72 133.54-30.32 133.12-30.52L133.12-30.52ZM104.44-5.86L104.41-6.15Q104.41-5.96 104.44-5.86L104.44-5.86ZM101.65-5.86L101.68-6.15Q101.65-6.05 101.65-5.86L101.65-5.86ZM153.6-2.73Q152.07-4.3 151.17-6.45 150.28-8.59 150.09-10.13 149.89-11.67 149.76-12.11 149.62-12.55 149.31-12.94L149.31-12.94Q148.67-13.75 146.99-14.58L146.99-14.58Q149.11-15.53 149.7-17.63L149.7-17.63Q149.87-18.21 149.97-18.8L149.97-18.8Q150.6-23.17 154.19-26.11 157.78-29.05 162.56-29.05L162.56-29.05Q167.54-29.05 171.13-26.07L171.13-26.07Q174.62-23.17 175.26-18.8L175.26-18.8Q175.48-17.26 175.92-16.55L175.92-16.55Q176.75-15.26 178.24-14.58L178.24-14.58Q176.58-13.77 176.09-13.16L176.09-13.16Q175.43-12.3 175.26-11.13L175.26-11.13Q174.48-5.37 171.25-2.38 168.03 0.61 162.66 0.61L162.66 0.61Q156.9 0.61 153.6-2.73L153.6-2.73ZM166.76-19.51Q166.76-25.61 162.61-25.61 158.46-25.61 158.46-19.51L158.46-19.51 158.46-8.69Q158.46-2.83 162.59-2.83L162.59-2.83Q166.76-2.83 166.76-8.69L166.76-8.69 166.76-19.51ZM169.11-22.73L169.11-6.47Q170.33-6.93 170.45-9.67L170.45-9.67Q170.6-12.4 170.6-13.73 170.6-15.06 170.58-15.95 170.57-16.85 170.55-17.8L170.55-17.8Q170.45-21.36 169.99-21.95 169.52-22.53 169.11-22.73L169.11-22.73ZM154.48-6.47L154.48-6.47Q154.82-6.74 154.82-7.08L154.82-7.08Q154.82-7.62 154.6-8.45L154.6-8.45Q153.6-12.28 153.6-13.78 153.6-15.28 153.7-16.13 153.8-16.97 153.95-17.82L153.95-17.82Q154.26-19.48 154.6-20.75L154.6-20.75Q154.82-21.58 154.82-21.88L154.82-21.88Q154.82-22.46 154.48-22.73L154.48-22.73Q153.46-21.51 152.92-19.46 152.38-17.41 152.04-15.84L152.04-15.84Q151.92-15.19 150.6-14.58L150.6-14.58Q151.92-13.96 152.04-13.35L152.04-13.35Q152.94-9.23 153.53-8.11 154.12-6.98 154.48-6.47ZM209.8-25.17L209.8-25.17Q209.22-25.51 208.06-25.51 206.9-25.51 206.13-25.16 205.36-24.8 204.92-23.63L204.92-23.63 203.67-20.34Q202.89-18.29 202.89-17.31 202.89-16.33 203.09-15.93 203.28-15.53 203.55-15.23L203.55-15.23Q204.06-14.7 204.6-14.58L204.6-14.58Q201.53-14.16 200.6-11.72L200.6-11.72 196.64-1.15Q196.11 0.22 194.93 0.71L194.93 0.71Q194.52 0.88 194.04 0.88 193.57 0.88 192.98 0.71L192.98 0.71 187.63-11.57Q186.56-13.82 183.29-14.58L183.29-14.58Q185.22-15.7 185.17-16.82L185.17-16.82Q185.17-17.7 184.39-19.73L184.39-19.73 183.02-23.24Q182.43-24.68 182.02-25.02L182.02-25.02Q181.31-25.61 180.33-25.61 179.36-25.61 178.82-25.2L178.82-25.2Q178.55-25.46 178.55-26.25 178.55-27.03 179.21-27.67 179.87-28.32 181.3-28.32 182.73-28.32 183.95-27.44L183.95-27.44Q184.95-28.32 186.4-28.32 187.85-28.32 188.93-27.51L188.93-27.51Q190.08-28.32 191.43-28.32 192.79-28.32 193.57-27.67 194.35-27.03 194.35-26.05L194.35-26.05Q194.35-25.46 193.98-25.1L193.98-25.1Q193.4-25.54 192.79-25.54L192.79-25.54Q191.47-25.54 191.47-24.29L191.47-24.29Q191.47-23.75 191.66-23.29L191.66-23.29 196.64-10.25 201.21-23.46Q201.43-25.63 199.35-25.63L199.35-25.63Q198.38-25.63 197.57-25.17L197.57-25.17Q197.3-25.61 197.3-26.35 197.3-27.1 197.96-27.71 198.62-28.32 199.78-28.32 200.94-28.32 201.77-27.54L201.77-27.54Q202.65-28.32 203.8-28.32 204.94-28.32 205.8-27.59L205.8-27.59Q206.73-28.32 207.79-28.32 208.85-28.32 209.45-27.73 210.05-27.15 210.05-26.34 210.05-25.54 209.8-25.17ZM193.62-6.47L186.95-22.73Q186.56-22.46 186.56-21.85 186.56-21.24 186.6-20.94 186.63-20.63 186.73-20.21L186.73-20.21Q186.93-19.41 187.39-18.31L187.39-18.31Q188.27-16.11 188.13-15.75 188-15.38 187.85-15.19L187.85-15.19Q187.56-14.7 187.15-14.55L187.15-14.55Q188.85-14.21 189.27-13.48L189.27-13.48Q189.76-12.5 189.98-12.01L189.98-12.01 191.32-9.01Q191.83-7.89 192.31-7.28 192.79-6.67 193.62-6.47L193.62-6.47ZM218.34-32.3L218.34-32.3Q217.1-32.3 215.94-32.96 214.78-33.62 214.17-34.72L214.17-34.72Q213.51-35.84 212.41-36.43L212.41-36.43Q212.07-36.6 211.63-36.79L211.63-36.79 212.46-37.3Q213.63-38.04 214.19-39.09 214.76-40.14 215.89-40.73 217.03-41.33 218.34-41.33L218.34-41.33Q221.08-41.33 222.3-39.04L222.3-39.04Q223.13-37.52 224.86-36.79L224.86-36.79Q224.5-36.57 224.14-36.4 223.79-36.23 223.47-36.01L223.47-36.01Q222.76-35.52 222.21-34.57 221.66-33.62 220.63-32.96 219.59-32.3 218.34-32.3ZM217.05-35.29Q216.9-35.55 216.82-35.9 216.73-36.25 216.73-37.16 216.73-38.06 217.66-39.45L217.66-39.45Q216.76-39.45 216.39-39.12 216.03-38.79 215.84-38.56 215.66-38.33 215.52-38.1 215.39-37.87 215.19-37.6L215.19-37.6Q214.73-36.94 214.44-36.79L214.44-36.79Q214.83-36.57 215.16-36.1 215.49-35.62 215.93-35.11L215.93-35.11Q216.59-34.3 217.66-34.3L217.66-34.3Q217.51-34.57 217.36-34.8 217.2-35.03 217.05-35.29ZM215.9-0.29L215.9-0.29Q214.78 0.49 213.35 0.49 211.92 0.49 211.23-0.15 210.53-0.78 210.53-1.37L210.53-1.37Q210.53-2.17 210.87-2.64L210.87-2.64Q211.41-2.22 212.46-2.22 213.51-2.22 214.27-3.59L214.27-3.59 214.27-11.38Q214.27-12.45 213.83-12.94L213.83-12.94Q213.12-13.67 211.29-14.58L211.29-14.58Q213-15.36 213.46-15.82L213.46-15.82Q214.27-16.63 214.27-17.8L214.27-17.8 214.27-21.36Q214.27-23.44 212.85-23.61L212.85-23.61Q212.44-23.66 211.8-23.66 211.17-23.66 210.63-23.24L210.63-23.24Q210.29-23.71 210.29-24.21 210.29-24.71 210.54-25.33 210.8-25.95 211.34-26.51L211.34-26.51Q212.61-27.83 214.27-27.83 215.93-27.83 217.27-27.25L217.27-27.25Q218.47-28.81 220-28.81L220-28.81Q222.52-28.81 222.52-26.17L222.52-26.17 222.52-17.8Q222.52-16.63 223.03-16.11L223.03-16.11Q223.79-15.36 225.5-14.58L225.5-14.58Q223.67-13.67 223.2-13.21L223.2-13.21Q222.52-12.45 222.52-11.38L222.52-11.38 222.52-3.52Q223.32-2.22 224.35-2.22 225.38-2.22 225.91-2.64L225.91-2.64Q226.25-2.17 226.25-1.48 226.25-0.78 225.56-0.15 224.86 0.49 223.47 0.49 222.08 0.49 220.88-0.29L220.88-0.29Q219.88 0.49 218.47 0.49 217.05 0.49 215.9-0.29ZM218.01-11.87Q218.03-12.7 218.04-13.26 218.05-13.82 218.05-14.16L218.05-14.16 218.05-14.82Q218.05-15.19 218.04-15.77 218.03-16.36 218.01-17.07 218-17.77 217.98-18.46L217.98-18.46Q217.88-20.14 217.73-20.78L217.73-20.78Q217.44-22.19 216.61-22.73L216.61-22.73 216.61-21.14Q216.61-17.02 216.43-16.3 216.24-15.58 215.84-15.22 215.44-14.87 214.66-14.6L214.66-14.6Q216.12-14.09 216.32-13.35L216.32-13.35Q216.61-12.18 216.61-8.06L216.61-8.06 216.61-6.47Q217.73-7.2 217.88-9.47L217.88-9.47Q218-11.04 218.01-11.87ZM250.23-7.37L250.23-7.37Q250.76-8.4 252.2-8.4L252.2-8.4Q253.18-8.4 253.72-7.59L253.72-7.59Q254.16-6.96 254.16-6.04 254.16-5.13 253.69-4.2 253.23-3.27 252.42-2.51 251.62-1.76 250.58-1.17 249.54-0.59 248.37-0.2L248.37-0.2Q245.95 0.61 243.34 0.61 240.73 0.61 238.45-0.26 236.16-1.12 234.53-2.69L234.53-2.69Q231.33-5.76 230.62-11.13L230.62-11.13Q230.45-12.33 230.06-12.84L230.06-12.84Q229.33-13.75 227.64-14.58L227.64-14.58Q229.77-15.53 230.35-17.63L230.35-17.63Q230.52-18.21 230.62-18.8L230.62-18.8Q231.23-23.1 234.97-26.12L234.97-26.12Q238.58-29.05 243.05-29.05L243.05-29.05Q247.69-29.05 251.08-25.78L251.08-25.78Q254.6-22.41 254.6-17.5L254.6-17.5Q254.6-17.33 254.58-17.16 254.57-16.99 254.6-16.85L254.6-16.85Q254.65-16.53 254.99-16.48L254.99-16.48Q255.43-15.92 255.43-15.28L255.43-15.28Q255.43-13.82 253.86-13.55L253.86-13.55Q253.47-13.48 252.64-13.35L252.64-13.35 238.87-11.16 238.87-8.81Q238.87-5.98 240.58-4.32L240.58-4.32Q242.19-2.73 244.66-2.73L244.66-2.73Q247.27-2.73 248.86-3.81L248.86-3.81Q250.35-4.83 250.35-6.49L250.35-6.49Q250.35-6.88 250.23-7.37ZM238.87-14.11L245.95-15.26 245.95-22.09Q245.95-23.71 245.32-24.46L245.32-24.46Q244.2-25.76 243.1-25.76 242-25.76 241.27-25.43 240.53-25.1 240-24.39L240-24.39Q238.87-22.9 238.87-19.75L238.87-19.75 238.87-14.11ZM248.05-15.63L249.57-15.87 249.57-16.63Q249.57-21.17 248.81-22.12L248.81-22.12Q248.47-22.53 248.05-22.73L248.05-22.73 248.05-15.63ZM234.89-6.47L234.89-6.47Q235.24-6.74 235.24-7.08L235.24-7.08Q235.24-7.62 235.02-8.45L235.02-8.45Q234.02-12.28 234.02-13.78 234.02-15.28 234.11-16.13 234.21-16.97 234.38-17.82L234.38-17.82Q234.67-19.48 235.02-20.75L235.02-20.75Q235.24-21.58 235.24-21.88L235.24-21.88Q235.24-22.46 234.89-22.73L234.89-22.73Q233.87-21.51 233.33-19.46 232.8-17.41 232.45-15.84L232.45-15.84Q232.33-15.19 231.01-14.58L231.01-14.58Q232.33-13.96 232.45-13.35L232.45-13.35Q233.36-9.23 233.94-8.11 234.53-6.98 234.89-6.47Z" opacity="1" transform="matrix(1,0,0,1,0,0)" fill="#ffffff" class="undefined-text-1" data-fill-palette-color="secondary" id="text-1"></path></svg></g></svg></g></svg></g></svg></g><g transform="matrix(1,0,0,1,76.53311999999997,0)"><svg viewBox="0 0 244.43135999999998 173.67150049365233" height="173.67150049365233" width="244.43135999999998"><g><svg xmlns="http://www.w3.org/2000/svg" xmlns:xlink="http://www.w3.org/1999/xlink" version="1.1" x="0" y="0" viewBox="10 21.579999923706055 80 56.84098815917969" enable-background="new 0 0 100 100" xml:space="preserve" height="173.67150049365233" width="244.43135999999998" class="icon-icon-0" data-fill-palette-color="accent" id="icon-0"><g fill="#ffffff" data-fill-palette-color="accent"><g fill="#ffffff" data-fill-palette-color="accent"><path d="M68.984 60.346c-4.03 0-7.559 2.633-9.499 6.57-1.229-0.947-2.684-1.498-4.242-1.498-1.827 0-3.511 0.754-4.855 2.02-1.739-2.738-4.454-4.504-7.507-4.504-1.177 0-2.305 0.264-3.345 0.744-0.591-0.969-1.653-1.617-2.871-1.617-1.859 0-3.367 1.506-3.367 3.365 0 1.205 0.638 2.26 1.591 2.855-0.325 0.617-0.603 1.275-0.829 1.965-0.263 0.174-0.513 0.371-0.747 0.594-1.199-1.891-3.075-3.109-5.182-3.109-3.62 0-6.558 3.59-6.558 8.018 0 1.479 0.979 2.672 2.187 2.672h8.741c0.088 0 0.174-0.008 0.259-0.02 0.076 0.012 0.154 0.02 0.234 0.02h3.556 3.783 8.88c0.128 0 0.251-0.012 0.374-0.027 0.111 0.016 0.226 0.027 0.341 0.027H60.56c0.163 0 0.325-0.02 0.481-0.055 0.183 0.033 0.365 0.055 0.554 0.055h14.779c2.042 0 3.697-2.021 3.697-4.518C80.071 66.418 75.104 60.346 68.984 60.346z" fill="#ffffff" data-fill-palette-color="accent"></path><circle cx="68.984" cy="52.255" r="6.8" fill="#ffffff" data-fill-palette-color="accent"></circle><circle cx="42.881" cy="56.001" r="5.8" fill="#ffffff" data-fill-palette-color="accent"></circle><circle cx="55.243" cy="59.597" r="4.9" fill="#ffffff" data-fill-palette-color="accent"></circle><circle cx="28.131" cy="62.943" r="4.0" fill="#ffffff" data-fill-palette-color="accent"></circle></g><path d="M10 21.58v45h12.254c-0.706-1.094-1.131-2.383-1.131-3.777 0-3.865 3.144-7.01 7.008-7.01 2.629 0 4.921 1.457 6.12 3.604 0.161-0.066 0.326-0.123 0.493-0.176-0.429-1.037-0.669-2.17-0.669-3.361 0-4.855 3.95-8.807 8.806-8.807 3.765 0 6.977 2.379 8.234 5.709 1.201-0.744 2.613-1.182 4.128-1.182 1.458 0 2.82 0.404 3.992 1.098-0.011-0.188-0.028-0.373-0.028-0.564 0-5.391 4.386-9.777 9.777-9.777s9.777 4.387 9.777 9.777c0 2.793-1.184 5.311-3.066 7.094 2.59 1.656 4.684 4.244 5.972 7.373H90v-45H10zM86 62.58h-1.839c-0.848-1.494-1.857-2.848-3.007-4.036 1.043-1.969 1.608-4.18 1.608-6.431 0-7.597-6.181-13.777-13.777-13.777-6.018 0-11.146 3.878-13.019 9.267-0.24-0.015-0.481-0.022-0.722-0.022-0.812 0-1.619 0.084-2.408 0.249-2.395-2.955-6.044-4.776-9.955-4.776-5.748 0-10.624 3.807-12.238 9.032-0.814-0.192-1.656-0.292-2.512-0.292-5.995 0-10.887 4.819-11.005 10.787H14v-37h72V62.58z" fill="#ffffff" data-fill-palette-color="accent"></path></g></svg></g></svg></g><g></g></svg></g></svg><rect width="230.2173865540113" height="247.2" fill="none" stroke="none" visibility="hidden"></rect></g></svg></g></svg>